<svg width="1920" height="1080" viewBox="0 0 1920 1080" xmlns="http://www.w3.org/2000/svg"><rect width="1920" height="1080" fill="#df6688"/><path d="M 0,1080 C 0,1080 0,180 0,180 C 117.74358974358975,209.8051282051282 235.4871794871795,239.6102564102564 337,223 C 438.5128205128205,206.3897435897436 523.7948717948718,143.36410256410258 639,132 C 754.2051282051282,120.63589743589742 899.3333333333335,160.93333333333334 997,173 C 1094.6666666666665,185.06666666666666 1144.871794871795,168.9025641025641 1249,150 C 1353.128205128205,131.0974358974359 1511.179487179487,109.45641025641027 1632,114 C 1752.820512820513,118.54358974358973 1836.4102564102564,149.27179487179487 1920,180 C 1920,180 1920,1080 1920,1080 Z" fill="#3d1053" opacity="0.09999999999999999"/><path d="M 0,1080 C 0,1080 0,360 0,360 C 79.80769230769232,380.79999999999995 159.61538461538464,401.59999999999997 262,392 C 364.38461538461536,382.40000000000003 489.3461538461539,342.40000000000003 608,331 C 726.6538461538461,319.59999999999997 839,336.79999999999995 935,360 C 1031,383.20000000000005 1110.6538461538462,412.40000000000003 1231,422 C 1351.3461538461538,431.59999999999997 1512.3846153846155,421.6 1634,408 C 1755.6153846153845,394.4 1837.8076923076924,377.2 1920,360 C 1920,360 1920,1080 1920,1080 Z" fill="#3d1053" opacity="0.19999999999999998"/><path d="M 0,1080 C 0,1080 0,540 0,540 C 99.574358974359,571.7230769230769 199.148717948718,603.4461538461538 305,590 C 410.851282051282,576.5538461538462 522.9794871794871,517.9384615384615 632,524 C 741.0205128205129,530.0615384615385 846.9333333333332,600.8 962,602 C 1077.0666666666668,603.2 1201.2871794871796,534.8615384615385 1314,511 C 1426.7128205128204,487.13846153846146 1527.9179487179488,507.7538461538462 1627,520 C 1726.0820512820512,532.2461538461538 1823.0410256410255,536.123076923077 1920,540 C 1920,540 1920,1080 1920,1080 Z" fill="#3d1053" opacity="0.3"/><path d="M 0,1080 C 0,1080 0,720 0,720 C 103.41025641025641,698.9717948717948 206.82051282051282,677.9435897435898 325,696 C 443.1794871794872,714.0564102564102 576.1282051282052,771.1974358974359 688,763 C 799.8717948717948,754.8025641025641 890.6666666666667,681.2666666666668 972,657 C 1053.3333333333333,632.7333333333332 1125.2051282051282,657.7358974358973 1237,668 C 1348.7948717948718,678.2641025641027 1500.5128205128206,673.7897435897437 1621,680 C 1741.4871794871794,686.2102564102563 1830.7435897435898,703.1051282051282 1920,720 C 1920,720 1920,1080 1920,1080 Z" fill="#3d1053" opacity="0.39999999999999997"/><path d="M 0,1080 C 0,1080 0,900 0,900 C 85.55641025641026,879.0794871794872 171.11282051282052,858.1589743589744 295,856 C 418.8871794871795,853.8410256410256 581.1051282051283,870.4435897435899 681,892 C 780.8948717948717,913.5564102564101 818.4666666666666,940.0666666666666 908,934 C 997.5333333333334,927.9333333333334 1139.0282051282052,889.2897435897438 1264,883 C 1388.9717948717948,876.7102564102562 1497.4205128205128,902.7743589743588 1604,911 C 1710.5794871794872,919.2256410256412 1815.2897435897435,909.6128205128206 1920,900 C 1920,900 1920,1080 1920,1080 Z" fill="#3d1053" opacity="0.49999999999999994"/></svg>