<svg width="1920" height="1080" viewBox="0 0 1920 1080" xmlns="http://www.w3.org/2000/svg"><rect width="1920" height="1080" fill="#3a0ca3"/><path d="M 0,1080 C 0,1080 0,180 0,180 C 90.44358974358971,147.10000000000002 180.88717948717942,114.20000000000002 286,113 C 391.1128205128206,111.79999999999998 510.89487179487185,142.29999999999998 615,177 C 719.1051282051282,211.70000000000002 807.5333333333333,250.60000000000002 923,241 C 1038.4666666666667,231.39999999999998 1180.9717948717948,173.29999999999998 1298,146 C 1415.0282051282052,118.70000000000002 1506.5794871794872,122.20000000000002 1606,133 C 1705.4205128205128,143.79999999999998 1812.7102564102565,161.89999999999998 1920,180 C 1920,180 1920,1080 1920,1080 Z" fill="#4361ee" opacity="0.09999999999999999"/><path d="M 0,1080 C 0,1080 0,360 0,360 C 90.92820512820512,361.2692307692307 181.85641025641024,362.5384615384615 302,368 C 422.14358974358976,373.4615384615385 571.5025641025642,383.11538461538464 695,381 C 818.4974358974358,378.88461538461536 916.1333333333332,364.99999999999994 1015,362 C 1113.8666666666668,359.00000000000006 1213.9641025641026,366.8846153846155 1297,376 C 1380.0358974358974,385.1153846153845 1446.0102564102563,395.46153846153845 1547,393 C 1647.9897435897437,390.53846153846155 1783.9948717948719,375.2692307692308 1920,360 C 1920,360 1920,1080 1920,1080 Z" fill="#4361ee" opacity="0.19999999999999998"/><path d="M 0,1080 C 0,1080 0,540 0,540 C 85.3282051282051,521.6282051282051 170.6564102564102,503.2564102564103 274,498 C 377.3435897435898,492.7435897435897 498.7025641025642,500.60256410256403 610,506 C 721.2974358974358,511.39743589743597 822.5333333333333,514.3333333333334 917,528 C 1011.4666666666667,541.6666666666666 1099.1641025641027,566.0641025641027 1229,569 C 1358.8358974358973,571.9358974358973 1530.8102564102564,553.4102564102565 1653,545 C 1775.1897435897436,536.5897435897435 1847.5948717948718,538.2948717948718 1920,540 C 1920,540 1920,1080 1920,1080 Z" fill="#4361ee" opacity="0.3"/><path d="M 0,1080 C 0,1080 0,720 0,720 C 94.52307692307696,699.4794871794873 189.0461538461539,678.9589743589744 281,672 C 372.9538461538461,665.0410256410256 462.3384615384614,671.6435897435897 584,685 C 705.6615384615386,698.3564102564103 859.6000000000001,718.4666666666666 967,718 C 1074.3999999999999,717.5333333333334 1135.2615384615383,696.4897435897437 1229,687 C 1322.7384615384617,677.5102564102563 1449.353846153846,679.574358974359 1570,687 C 1690.646153846154,694.425641025641 1805.323076923077,707.2128205128205 1920,720 C 1920,720 1920,1080 1920,1080 Z" fill="#4361ee" opacity="0.39999999999999997"/><path d="M 0,1080 C 0,1080 0,900 0,900 C 81.574358974359,856.0589743589744 163.148717948718,812.1179487179487 275,836 C 386.851282051282,859.8820512820513 528.9794871794871,951.5871794871796 635,966 C 741.0205128205129,980.4128205128204 810.9333333333334,917.5333333333334 925,911 C 1039.0666666666666,904.4666666666666 1197.2871794871794,954.2794871794873 1324,957 C 1450.7128205128206,959.7205128205127 1545.9179487179485,915.3487179487179 1640,898 C 1734.0820512820515,880.6512820512821 1827.0410256410257,890.3256410256411 1920,900 C 1920,900 1920,1080 1920,1080 Z" fill="#4361ee" opacity="0.49999999999999994"/></svg>